<?xml version="1.0" encoding="UTF-8"?>
<svg id="Camada_2" data-name="Camada 2" xmlns="http://www.w3.org/2000/svg" viewBox="0 0 131.8 30">
  <defs>
    <style>
      .cls-1, .cls-2 {
        fill: #fff;
      }

      .cls-3 {
        letter-spacing: -.04em;
      }

      .cls-2 {
        font-family: BebasNeueBold, 'Bebas Neue';
        font-size: 29.15px;
      }
    </style>
  </defs>
  <g id="Camada_1-2" data-name="Camada 1">
    <g>
      <text class="cls-2" transform="translate(33.43 24.78)"><tspan class="cls-3" x="0" y="0">T</tspan><tspan x="9.27" y="0">ask</tspan><tspan x="44.11" y="0">Tools</tspan></text>
      <path class="cls-1" d="M25.45,13.92h-5.52v-1.07h-.01v-4.24c0-.35-.29-.64-.64-.64h-6.06V2.05h0c-.02-.34-.3-.61-.64-.61H.64c-.35,0-.64,.29-.64,.64V14.02c0,.35,.29,.64,.64,.64H6.35v6.23c0,.35,.29,.64,.64,.64h5.53v5.53c0,.35,.29,.64,.64,.64h12.29c.35,0,.64-.29,.64-.64V14.56c0-.35-.29-.64-.64-.64ZM6.35,8.61v5.35h.04s-.03,0-.04,0H.71V2.15H12.51V7.97H6.99c-.35,0-.64,.29-.64,.64Zm.71,12.23v-7.6s0,0,0,0v-4.56s6.17,0,6.17,0h5.99v12.17H7.05Zm18.34,6.17H13.22v-5.47h6.06c.35,0,.64-.29,.64-.64v-4.49h.01v-1.78h5.46v12.39Z"/>
    </g>
  </g>
</svg>